<svg xmlns="http://www.w3.org/2000/svg" version="1.1" xmlns:xlink="http://www.w3.org/1999/xlink" xmlns:svgjs="http://svgjs.dev/svgjs" width="128" height="128" viewBox="0 0 128 128"><g transform="matrix(0.8046875,0,0,0.8046875,12.075210044460455,1.9612716663810872)"><svg viewBox="0 0 81 98" data-background-color="#ececea" preserveAspectRatio="xMidYMid meet" height="154" width="128" xmlns="http://www.w3.org/2000/svg" xmlns:xlink="http://www.w3.org/1999/xlink"><g id="tight-bounds" transform="matrix(1,0,0,1,0.334058120375758,0.061518611582130234)"><svg viewBox="0 0 80.33188375924847 95.48100000000001" height="95.48100000000001" width="80.33188375924847"><g><svg viewBox="0 0 80.33188375924847 95.48100000000001" height="95.48100000000001" width="80.33188375924847"><g><svg viewBox="0 0 80.33188375924847 95.48100000000001" height="95.48100000000001" width="80.33188375924847"><g id="textblocktransform"><svg viewBox="0 0 80.33188375924847 95.48100000000001" height="95.48100000000001" width="80.33188375924847" id="textblock"><g><svg viewBox="0 0 80.33188375924847 95.48100000000001" height="95.48100000000001" width="80.33188375924847"><g><svg viewBox="0 0 80.33188375924847 95.48100000000001" height="95.48100000000001" width="80.33188375924847"><g><svg xmlns="http://www.w3.org/2000/svg" xmlns:xlink="http://www.w3.org/1999/xlink" xmlns:a="http://ns.adobe.com/AdobeSVGViewerExtensions/3.0/" version="1.1" x="0" y="0" viewBox="0 0 31.829 37.831364170519876" enable-background="new -4 -1.012 40 40" xml:space="preserve" height="95.48100000000001" width="80.33188375924847" class="icon-icon-0" data-fill-palette-color="accent" id="icon-0"><path d="M14.325 0H4.338C1.463 0 0 1.463 0 4.338V22.953C0 25.828 1.463 27.291 4.338 27.291H27.491C30.366 27.291 31.829 25.828 31.829 22.953V15.639C29.46 17.808 26.634 18.917 23.357 18.917 20.026 18.917 17.151 17.808 14.781 15.589 12.408 13.368 11.25 10.695 11.25 7.568 11.25 4.642 12.26 2.121 14.325 0" fill="#ffbf5d" data-fill-palette-color="accent"></path><path d="M29.055 2.221C27.543 0.808 25.727 0.052 23.606 0H23.153C21.036 0.052 19.219 0.757 17.656 2.221S15.287 5.5 15.287 7.567 16.093 11.45 17.656 12.913 21.136 15.134 23.357 15.134C25.575 15.134 27.491 14.377 29.054 12.913 30.618 11.45 31.427 9.634 31.427 7.567 31.428 5.5 30.619 3.684 29.055 2.221" fill="#ffbf5d" data-fill-palette-color="accent"></path><path d="M26.734 29.913C25.827 29.007 24.716 28.551 23.458 28.551 22.195 28.551 21.085 29.007 20.178 29.913 19.269 30.821 18.816 31.931 18.816 33.193 18.816 34.452 19.269 35.562 20.178 36.472A4.5 4.5 0 0 0 23.458 37.831C24.717 37.831 25.827 37.378 26.734 36.472 27.643 35.562 28.096 34.451 28.096 33.193 28.097 31.93 27.644 30.821 26.734 29.913" fill="#ffbf5d" data-fill-palette-color="accent"></path><path d="M11.603 29.913C10.697 29.007 9.586 28.551 8.324 28.551 7.065 28.551 5.954 29.007 5.048 29.913 4.138 30.821 3.685 31.931 3.685 33.193 3.685 34.452 4.138 35.562 5.048 36.472A4.5 4.5 0 0 0 8.324 37.831 4.5 4.5 0 0 0 11.603 36.472C12.512 35.562 12.965 34.451 12.965 33.193 12.965 31.93 12.512 30.821 11.603 29.913" fill="#ffbf5d" data-fill-palette-color="accent"></path></svg></g></svg></g></svg></g></svg></g></svg></g></svg></g><defs></defs></svg><rect width="80.33188375924847" height="95.48100000000001" fill="none" stroke="none" visibility="hidden"></rect></g></svg></g></svg>